<?xml version="1.0" encoding="UTF-8"?>
<svg id="Layer_1" data-name="Layer 1" xmlns="http://www.w3.org/2000/svg" viewBox="0 0 1080 1080">
  <defs>
    <style>
      .cls-1 {
        fill: #163d86;
      }

      .cls-2 {
        fill: #fff;
      }

      .cls-3 {
        fill: #1f3b80;
      }

      .cls-4 {
        font-family: Poppins-SemiBold, Poppins;
        font-size: 44.24px;
        font-weight: 600;
      }
    </style>
  </defs>
  <rect width="1080" height="1080"/>
  <g>
    <g>
      <path class="cls-3" d="M435.51,659.62c-9.52.52-17.5.59-26.28-.33l144.35-250.08-13.19-22.03-156.93,271.76-26.33-.2,183.39-317.64,65.97,113.6-118.33,205.01c-9.07.3-17.02.35-26.29-.35l118.05-204.5-13.32-22.23-131.08,226.99Z"/>
      <path class="cls-2" d="M581.05,659.58c-9.29.52-16.85.47-26.35-.06l36.81-64.06-24.88-14.47-45.47,78.72-26.34-.26,114.61-198.52,13.38,22.68-44.68,77.44,24.93,14.38,36.59-63.04,13.09,23.05-71.69,124.14Z"/>
      <path class="cls-1" d="M684.4,654.59l-4.29,5.35-93.37-.33,68.09-117.98,68.06,117.82-29.76.5-8.72-5.36ZM662.82,614.21l15.56,21.43c.56.78,3.69.86,4.51.42l-27.98-48.34-28.35,48.91h23.61s-5.8-9.57-5.8-9.57l18.46-12.84Z"/>
    </g>
    <text class="cls-4" transform="translate(343.93 712.67)"><tspan class="cls-1" x="0" y="0">UK </tspan><tspan class="cls-2" x="70.69" y="0">CONSULTANTS</tspan></text>
  </g>
</svg>